<?xml version="1.0" encoding="utf-8"?>
<!-- Generator: Adobe Illustrator 16.0.0, SVG Export Plug-In . SVG Version: 6.00 Build 0)  -->
<!DOCTYPE svg PUBLIC "-//W3C//DTD SVG 1.1//EN" "http://www.w3.org/Graphics/SVG/1.1/DTD/svg11.dtd">
<svg version="1.1"
	 id="Layer_1" xmlns:dc="http://purl.org/dc/elements/1.1/" xmlns:cc="http://creativecommons.org/ns#" xmlns:rdf="http://www.w3.org/1999/02/22-rdf-syntax-ns#" xmlns:svg="http://www.w3.org/2000/svg" xmlns:sodipodi="http://sodipodi.sourceforge.net/DTD/sodipodi-0.dtd" xmlns:inkscape="http://www.inkscape.org/namespaces/inkscape"
	 xmlns="http://www.w3.org/2000/svg" xmlns:xlink="http://www.w3.org/1999/xlink" x="0px" y="0px" width="505.052px"
	 height="505.052px" viewBox="342.749 84.23 505.052 505.052" enable-background="new 342.749 84.23 505.052 505.052"
	 xml:space="preserve">
<g transform="translate(0,-952.36218)">
	<path d="M376.203,1346.269c-44.605,44.606-44.606,117.316-0.001,161.922c44.604,44.604,117.315,44.604,161.922-0.001l95.249-95.25
		c42.67-42.67,44.723-111.014,5.656-155.969c-7.346-8.435-20.138-9.317-28.572-1.972c-8.435,7.345-9.317,20.138-1.973,28.571
		c0.012,0.014,0.024,0.027,0.036,0.041c25.455,29.292,24.272,72.76-3.722,100.754l-95.25,95.25
		c-29.27,29.27-75.504,29.27-104.772,0.001c-29.269-29.27-29.269-75.504,0.001-104.772l95.249-95.25
		c8.003-7.778,8.186-20.572,0.407-28.574c-7.778-8.003-20.571-8.185-28.574-0.407c-0.138,0.133-0.273,0.269-0.407,0.407
		L376.203,1346.269z M557.176,1165.296c-42.67,42.67-44.723,111.014-5.656,155.97c7.356,8.425,20.15,9.29,28.575,1.935
		c8.425-7.357,9.291-20.15,1.935-28.575l0,0c-25.456-29.292-24.273-72.76,3.721-100.755l95.249-95.249
		c29.27-29.27,75.505-29.271,104.773-0.001c29.269,29.269,29.269,75.503-0.001,104.772l-95.249,95.249
		c-7.997,7.785-8.17,20.578-0.386,28.575c7.783,7.997,20.577,8.17,28.574,0.386c0.131-0.127,0.26-0.256,0.386-0.386l95.249-95.249
		c44.605-44.606,44.606-117.318,0.002-161.922c-44.605-44.605-117.316-44.604-161.923,0.001L557.176,1165.296z"/>
</g>
</svg>
